<?xml version="1.0" encoding="utf-8"?>
<!-- Generator: Adobe Illustrator 24.3.0, SVG Export Plug-In . SVG Version: 6.00 Build 0)  -->
<svg version="1.1" id="Layer_1" xmlns="http://www.w3.org/2000/svg" xmlns:xlink="http://www.w3.org/1999/xlink" x="0px" y="0px"
	 viewBox="0 0 700 130" style="enable-background:new 0 0 700 130;" xml:space="preserve">
<style type="text/css">
	.st0{fill:#FFFFFF;}
</style>
<g id="Group_427" transform="translate(-54.603 -15.245)">
	<path id="Path_7" class="st0" d="M692.7,122.01c-0.71-0.28-1.45-0.48-2.21-0.6c-3.24-0.87-5.8-3.33-6.8-6.53
		c-0.15-0.5-0.03-0.55,0.41-0.55c1,0.03,2.02,0.05,3.04,0c0.45-0.06,0.88,0.19,1.05,0.61c0.76,1.71,2.26,2.98,4.07,3.46
		c1.97,0.5,4.05,0.41,5.97-0.28c2.08-0.63,3.54-2.5,3.66-4.67c0.15-2,0.03-4.06,0.03-6.19c-0.97,1.35-2.21,2.49-3.65,3.33
		c-4.32,2.13-9.54,0.86-12.4-3.01c-3.33-5.01-3.45-11.49-0.33-16.63c2.9-4.38,8.8-5.57,13.18-2.67c0.87,0.58,1.64,1.29,2.28,2.12
		l0.97,1.31c0-1.41,0.03-2.66-0.02-3.9c-0.03-0.6,0.14-0.75,0.74-0.74c2.05,0.05,4.1,0.03,6.14,0c0.55,0,0.72,0.15,0.66,0.67
		c-0.08,0.83,0.36,1.94-0.17,2.4c-0.46,0.41-1.53,0.13-2.35,0.13c-1.17,0.02-1.17,0-1.17,1.21c-0.02,7.01,0.05,14.03-0.05,21.04
		c0.15,4.65-3.3,8.63-7.92,9.14c-0.44,0.13-0.89,0.17-1.35,0.14c-0.27,0.02-0.55,0-0.81,0.02c-0.74,0.08-1.49-0.17-2.19,0.15
		L692.7,122.01z M701.97,99.18c0.05-1,0.02-2-0.09-2.99c-0.49-2.17-1.87-4.04-3.8-5.15c-2.88-2.04-6.88-1.36-8.92,1.53
		c-0.35,0.49-0.63,1.03-0.82,1.6c-1.01,2.66-1.18,5.57-0.5,8.33c0.32,2.21,1.65,4.15,3.6,5.25c3.74,1.71,8.16,0.07,9.87-3.67
		c0.39-0.86,0.62-1.79,0.67-2.74L701.97,99.18z"/>
	<path id="Path_8" class="st0" d="M726.71,52.6c-0.27,0.17-0.22,0.49-0.28,0.72c-1.57,6.44-8.06,10.39-14.5,8.82
		s-10.39-8.06-8.82-14.5c1.57-6.44,8.06-10.39,14.5-8.82c4.57,1.11,8.06,4.78,8.95,9.4c0.03,0.11,0,0.25,0.15,0.3L726.71,52.6z
		 M724.77,50.46c-0.01-5.53-4.49-10-10.02-9.99s-10,4.49-9.99,10.02c0.01,5.53,4.49,10,10.02,9.99c0.02,0,0.03,0,0.05,0
		C720.33,60.44,724.77,55.96,724.77,50.46L724.77,50.46z"/>
	<path id="Path_9" class="st0" d="M693.47,122.01c0.7-0.33,1.46-0.08,2.19-0.15c0.27-0.02,0.55,0,0.81-0.02l0.03,0.17L693.47,122.01
		z"/>
	<path id="Path_10" class="st0" d="M115.9,88.32c5.1,1.69,8.4,6.63,8,11.99c0.03,3.53-1.4,6.92-3.96,9.35
		c-2.41,2.15-5.42,3.5-8.63,3.87c-1.08,0.14-2.17,0.19-3.26,0.17c-8.27,0-16.54,0.01-24.82,0.02c-0.6,0-0.75-0.15-0.74-0.74
		c0.03-2.14,0.03-4.29,0-6.45c-0.02-0.5,0.09-0.7,0.66-0.67c0.76,0.05,1.57-0.02,2.35,0.03c0.53,0.03,0.66-0.13,0.66-0.66
		c-0.02-4.78-0.02-9.55-0.02-14.33c0-5.57,0-11.16,0.02-16.74c0-0.6-0.14-0.76-0.74-0.74c-0.78,0.05-1.57,0-2.35,0.02
		c-0.39,0.02-0.58-0.05-0.58-0.52c0.03-2.27,0.02-4.54,0-6.81c0-0.41,0.11-0.52,0.5-0.52c8.21,0.03,16.39,0.02,24.6,0.08
		c2.08-0.08,4.15,0.19,6.14,0.78c4.14,1.32,7.24,4.79,8.08,9.05c0.49,2.12,0.49,4.33,0,6.45c-0.56,2.26-2.04,4.18-4.09,5.29
		C117.16,87.61,116.56,87.94,115.9,88.32z M96.2,99.24c0,1.96,0.03,3.93-0.02,5.9c-0.02,0.61,0.19,0.74,0.76,0.74
		c3.05-0.03,6.11-0.03,9.18-0.02c0.93,0.05,1.86-0.03,2.77-0.24c2.86-0.7,4.94-3.16,5.17-6.09c0.1-2.74-1.55-5.23-4.1-6.22
		c-1.3-0.57-2.7-0.85-4.12-0.83c-3.05,0.03-6.11,0.17-9.16,0.22c-0.52,0.02-0.49,0.27-0.49,0.63L96.2,99.24z M96.2,79.24
		c0,1.69,0.03,3.38-0.02,5.07c-0.02,0.64,0.15,0.8,0.8,0.8c2.9-0.03,5.8-0.05,8.72,0.02c1.63,0.09,3.23-0.4,4.54-1.36
		c2.45-1.67,3.09-5.01,1.41-7.47c-0.57-0.84-1.36-1.49-2.29-1.9c-1.01-0.53-2.12-0.84-3.26-0.91c-3.13-0.15-6.26-0.02-9.41-0.08
		c-0.47,0-0.52,0.22-0.5,0.61L96.2,79.24z"/>
	<path id="Path_11" class="st0" d="M500.56,105.1c1.55-6.73,3.07-13.32,4.6-19.93c0.22-0.97,0.22-0.97-0.81-0.97
		c-0.7,0-1.42-0.02-2.13,0c-0.38,0.02-0.53-0.08-0.52-0.49c0.02-2.05,0.02-4.1,0-6.14c0-0.41,0.13-0.52,0.52-0.5h13.73
		c0.33,0,0.5,0.05,0.49,0.44c-0.02,2.08-0.02,4.15,0,6.22c0.02,0.36-0.08,0.49-0.46,0.47c-0.69-0.02-1.37,0.05-2.05-0.02
		c-0.55-0.03-0.74,0.15-0.86,0.67c-1.14,4.39-2.32,8.77-3.48,13.13c-1.33,5.03-2.65,10.04-3.96,15.05c-0.03,0.4-0.37,0.71-0.78,0.68
		c-0.03,0-0.06-0.01-0.09-0.01c-2.85-0.03-5.71-0.03-8.58,0c-0.47,0-0.63-0.14-0.74-0.61c-1.91-7.95-3.82-15.9-5.74-23.86
		c-0.05-0.2-0.11-0.39-0.22-0.74c-0.75,3.24-1.47,6.33-2.19,9.43c-1.16,5.06-2.33,10.1-3.49,15.17c-0.09,0.44-0.24,0.61-0.72,0.61
		c-2.9-0.03-5.78-0.03-8.66,0c-0.53,0-0.67-0.22-0.78-0.66c-2.13-7.84-4.27-15.69-6.41-23.53c-0.44-1.61-0.91-3.21-1.31-4.81
		c-0.09-0.42-0.27-0.53-0.67-0.52c-0.7,0.02-1.41-0.02-2.11,0c-0.42,0.02-0.58-0.09-0.56-0.53c0.02-2.02,0.02-4.04,0-6.06
		c-0.02-0.47,0.17-0.53,0.56-0.53c4.54,0,9.07-0.01,13.59-0.02c0.49,0,0.6,0.14,0.6,0.61c-0.03,1.98-0.03,3.97-0.02,5.98
		c0.02,0.41-0.09,0.58-0.53,0.56c-0.81-0.05-1.63,0.02-2.43-0.03c-0.6-0.03-0.67,0.19-0.55,0.69c0.94,3.9,1.85,7.8,2.77,11.7
		c0.71,2.98,1.42,5.97,2.18,9.19c0.36-1.63,0.66-3.04,0.96-4.45c1.68-7.89,3.35-15.78,5.01-23.67c0.11-0.47,0.3-0.6,0.75-0.6
		c2.77,0.03,5.53,0.03,8.28,0c0.58,0,0.74,0.2,0.86,0.74c1.91,8.97,3.84,17.94,5.78,26.9C500.4,104.77,500.45,104.86,500.56,105.1z"
		/>
	<path id="Path_12" class="st0" d="M457.55,113.98c-1.63,0-3.24-0.03-4.87,0.02c-0.5,0-0.67-0.17-0.8-0.64
		c-0.92-3.08-1.88-6.15-2.8-9.24c-0.13-0.49-0.31-0.63-0.81-0.63c-5.26,0.02-10.52,0.01-15.78-0.02c-0.6,0-0.76,0.24-0.91,0.72
		c-0.91,3.07-1.85,6.12-2.75,9.18c-0.14,0.47-0.31,0.63-0.81,0.63c-3.35-0.03-6.69-0.03-10.02,0c-0.53,0-0.69-0.13-0.67-0.67
		c0.03-2.19,0.03-4.39,0-6.59c0-0.5,0.14-0.64,0.64-0.63c0.83,0.05,1.66-0.02,2.51,0.03c0.44,0.02,0.61-0.14,0.74-0.55
		c2.4-7.42,4.8-14.84,7.22-22.25c1.88-5.75,3.75-11.49,5.62-17.22c0.04-0.33,0.35-0.56,0.67-0.52c3.58,0.02,7.19,0.02,10.77,0
		c0.47,0,0.58,0.19,0.71,0.58c4.32,13.06,8.65,26.12,13,39.19c0.19,0.55,0.38,0.83,1.03,0.76c0.76-0.08,1.57,0,2.35-0.02
		c0.41-0.02,0.58,0.08,0.58,0.53c-0.03,2.27-0.03,4.54,0,6.81c0,0.49-0.2,0.52-0.58,0.52C460.88,113.96,459.21,113.98,457.55,113.98
		z M433.79,96.02l0.2,0.06c3.96,0.02,7.94,0,11.91,0.02c0.6,0.02,0.44-0.3,0.35-0.6c-2.04-6.86-4.07-13.7-6.17-20.76L433.79,96.02z"
		/>
	<path id="Path_13" class="st0" d="M609.58,97.38c-4.15,0-8.3,0.02-12.45-0.02c-0.63,0-0.75,0.17-0.66,0.76
		c0.26,2.58,1.33,5,3.05,6.94c3.14,3.11,8.21,3.09,11.32-0.05c0.72-0.73,1.29-1.58,1.69-2.52c0.07-0.35,0.4-0.58,0.75-0.53
		c2.68-0.06,5.35-0.14,8.03-0.27c0.7-0.03,0.76,0.19,0.6,0.8c-1.44,6.07-6.37,10.69-12.52,11.74c-5.26,1.33-10.85,0.2-15.17-3.08
		c-3.73-2.9-6.18-7.14-6.83-11.82c-0.94-4.91-0.14-9.98,2.24-14.37c3.41-6.18,10.24-9.65,17.24-8.77c4.84,0.41,9.23,3,11.95,7.02
		c2.72,4.02,4.13,8.78,4.02,13.64c0,0.64-0.38,0.52-0.74,0.52L609.58,97.38z M604.56,90.76v0.21c2.44,0,4.9,0,7.34,0.02
		c0.49,0,0.66-0.09,0.6-0.63c-0.44-4.1-4.12-7.07-8.22-6.63c-0.4,0.04-0.79,0.12-1.17,0.22c-3.16,0.73-5.63,3.2-6.36,6.36
		c-0.13,0.46,0.09,0.49,0.46,0.49C599.66,90.76,602.1,90.76,604.56,90.76z"/>
	<path id="Path_14" class="st0" d="M151.99,97.38c-4.15,0-8.3,0.02-12.45-0.02c-0.63,0-0.76,0.17-0.67,0.75
		c0.26,2.6,1.34,5.06,3.1,7c3.16,3.09,8.23,3.03,11.31-0.14c0.7-0.72,1.26-1.56,1.65-2.48c0.08-0.35,0.41-0.59,0.76-0.54
		c2.65-0.06,5.29-0.17,7.95-0.24c0.88-0.03,0.89-0.02,0.66,0.83c-1.35,5.7-5.84,10.14-11.56,11.43c-5.21,1.59-10.86,0.75-15.38-2.29
		c-3.89-2.66-6.54-6.77-7.37-11.4c-1.26-5.26-0.48-10.8,2.16-15.52c3.43-6.07,10.2-9.46,17.11-8.58c4.87,0.41,9.28,3.03,11.98,7.09
		c2.7,4,4.1,8.74,4.01,13.57c-0.02,0.63-0.38,0.52-0.74,0.52L151.99,97.38z M139.34,90.77c0.69,0,1.36-0.02,2.04,0
		c4.37,0.06,8.74,0.11,13.12,0.2c0.56,0.02,0.67-0.17,0.61-0.69c-0.1-0.95-0.38-1.88-0.83-2.72c-1.61-2.93-4.97-4.45-8.24-3.73
		C142.61,84.57,139.96,87.31,139.34,90.77z"/>
	<path id="Path_15" class="st0" d="M542.82,109.69c-0.56,0.58-1.02,1.08-1.52,1.52c-5.43,4.52-13.28,4.67-18.87,0.35
		c-5.25-4.39-5.86-14.31,2.62-18.02c2.99-1.24,6.14-2.05,9.35-2.43c2.52-0.36,5.07-0.61,7.61-0.8c0.39-0.02,0.58-0.09,0.56-0.56
		c-0.02-0.99-0.14-1.97-0.36-2.93c-0.38-1.92-1.94-3.39-3.88-3.65c-1.62-0.31-3.28-0.28-4.89,0.08c-2.18,0.46-3.79,2.31-3.95,4.53
		c-0.14,1.05-0.14,1.05-1.16,1.03c-2.4-0.08-4.79-0.15-7.2-0.19c-0.55-0.02-0.6-0.2-0.53-0.67c0.49-5.18,4.26-9.46,9.35-10.59
		c4.41-1.26,9.1-1.13,13.44,0.38c4.85,1.39,8.13,5.89,7.97,10.93c0.03,5.76-0.09,11.51-0.19,17.25c0,0.72,0.08,1.03,0.91,0.96
		c0.74-0.06,1.74-0.35,2.18,0.14c0.36,0.41,0.11,1.37,0.11,2.11c0.02,1.44-0.02,2.87,0.02,4.31c0.02,0.44-0.13,0.55-0.55,0.55
		c-3.49-0.02-6.98-0.02-10.48,0c-0.44,0.02-0.55-0.13-0.53-0.55C542.85,112.24,542.82,111.03,542.82,109.69z M542.57,99.07
		c0-0.72-0.03-1.25,0.02-1.77c0.05-0.52-0.06-0.69-0.64-0.64c-2.29,0.22-4.58,0.41-6.84,0.83c-1.73,0.22-3.4,0.8-4.89,1.72
		c-2.14,1.42-2.73,4.3-1.31,6.45c0.45,0.68,1.08,1.24,1.81,1.6c2.75,1.43,6.09,1.09,8.5-0.85
		C541.58,104.75,542.86,101.95,542.57,99.07L542.57,99.07z"/>
	<path id="Path_16" class="st0" d="M268.44,83.82c1.03-1.59,2.24-3.06,3.6-4.37c2.83-2.63,6.76-3.7,10.54-2.88
		c2.91,0.58,5.19,2.85,5.78,5.76c0.14,0.44,0.24,0.88,0.39,1.44l0.86-1.37c1.63-2.9,4.35-5.03,7.56-5.92
		c2.91-0.96,6.12-0.4,8.53,1.49c1.91,1.67,3.01,4.08,3.01,6.62c0.11,1.41,0.09,2.82,0.09,4.23c0,6.58,0.02,13.13-0.02,19.7
		c0,0.64,0.15,0.8,0.78,0.78c1.27-0.06,2.54,0,3.8-0.03c0.41,0,0.56,0.08,0.55,0.53c-0.03,1.13-0.03,2.27,0,3.41
		c0.02,0.41-0.13,0.5-0.52,0.49c-3.08,0-6.17-0.02-9.25,0.02c-0.67,0.02-0.56-0.38-0.56-0.76V87.64c0.02-1.19-0.13-2.37-0.47-3.51
		c-0.59-2.48-3.03-4.06-5.54-3.58c-2.97,0.42-5.58,2.19-7.06,4.81c-1.37,2.01-2.08,4.39-2.04,6.83c0.11,5.46,0.05,10.91,0.02,16.36
		c0,0.6,0.14,0.76,0.74,0.75c1.36-0.05,2.74,0,4.1-0.03c0.41,0,0.56,0.08,0.55,0.53c-0.03,1.14-0.03,2.27,0,3.41
		c0.02,0.41-0.13,0.5-0.52,0.5c-3.26-0.02-6.53-0.03-9.79,0c-0.58,0-0.52-0.3-0.52-0.66c0.02-5.7,0.02-11.41,0.02-17.11v-8.78
		c0.02-1.04-0.13-2.07-0.42-3.07c-0.49-1.93-2.22-3.29-4.21-3.3c-2.73-0.15-5.35,1.04-7.05,3.18c-2.33,2.43-3.6,5.68-3.52,9.05
		c0.14,5.26,0.05,10.51,0.03,15.77c-0.02,0.61,0.14,0.81,0.78,0.78c1.36-0.05,2.72,0,4.09-0.02c0.42-0.02,0.58,0.09,0.56,0.55
		c-0.03,1.11-0.03,2.22,0,3.32c0.02,0.42-0.09,0.56-0.53,0.56c-4.96-0.02-9.92-0.02-14.88,0c-0.42,0-0.56-0.09-0.55-0.53
		c0.03-1.13,0.02-2.27,0-3.41c-0.02-0.41,0.14-0.49,0.52-0.49c1.39,0.02,2.79-0.02,4.17,0.02c0.52,0.02,0.7-0.08,0.7-0.64
		c-0.03-9.03-0.02-18.09,0-27.12c0-0.5-0.15-0.58-0.61-0.56c-1.41,0.02-2.83,0-4.24,0.02c-0.35,0-0.55-0.02-0.55-0.47
		c0.05-1.17,0.05-2.33,0.02-3.49c-0.02-0.44,0.17-0.49,0.53-0.47c3.26,0,6.53,0,9.79-0.02c0.41,0,0.49,0.13,0.5,0.52
		C268.27,79.41,268.35,81.5,268.44,83.82z"/>
	<path id="Path_17" class="st0" d="M206.53,106.51c-0.92,1.24-1.91,2.44-2.96,3.57c-2.83,2.92-6.68,4.64-10.74,4.81
		c-7.06,0.35-12.31-2.94-16.22-8.57c-3.05-4.47-4.71-9.73-4.79-15.14c-0.37-5.98,1.07-11.93,4.13-17.08
		c2.37-4.33,6.34-7.57,11.05-9.03c6.91-2.23,14.46,0.46,18.4,6.57l0.47,0.69c0.25-0.19,0.14-0.42,0.14-0.63
		c0.02-1.98,0.02-3.99,0-5.98c0-0.46,0.09-0.63,0.58-0.61c1.35,0.03,2.68,0.03,4.02,0c0.5-0.02,0.58,0.17,0.58,0.61
		c-0.02,4.74-0.02,9.49,0,14.25c0,0.5-0.17,0.58-0.61,0.56c-1.42-0.03-2.83-0.03-4.26,0c-0.46,0.02-0.58-0.15-0.69-0.56
		c-1.35-5.77-6.25-10.03-12.15-10.59c-2.36-0.24-4.74,0.34-6.73,1.63c-3.72,2.16-6.4,5.74-7.42,9.92
		c-2.09,6.77-1.52,14.09,1.6,20.46c1.48,3.29,4.17,5.89,7.5,7.26c4.16,1.69,8.91,0.9,12.31-2.04c3.74-2.8,5.81-7.29,5.53-11.95
		c-0.02-0.5-0.25-0.49-0.6-0.47c-3.35,0-6.69-0.02-10.02,0.02c-0.67,0-0.94-0.09-0.83-0.86c0.11-1.03,0.17-2.06,0.17-3.1
		c0.02-0.36,0.11-0.52,0.52-0.52c5.31,0.02,10.63,0.02,15.94,0c0.67,0,0.5,0.42,0.5,0.75v16.15c0,2.14-0.02,4.29,0.02,6.44
		c0,0.5-0.14,0.66-0.64,0.64c-1.39-0.03-2.79-0.03-4.17,0c-0.49,0-0.64-0.11-0.64-0.61C206.55,110.89,206.53,108.7,206.53,106.51z"
		/>
	<path id="Path_18" class="st0" d="M329.84,107.2c0,2.13-0.03,4.06,0.02,5.98c0.03,0.69-0.17,0.81-0.81,0.81
		c-2.99-0.05-5.98-0.05-8.96,0c-0.7,0.02-0.85-0.2-0.81-0.85c0.05-1.01,0.05-2.02,0-3.02c-0.02-0.49,0.15-0.6,0.61-0.58
		c1.31,0.03,2.63-0.02,3.95,0.02c0.49,0.02,0.58-0.14,0.58-0.6c-0.02-13.51-0.02-27.03,0-40.54c0-0.5-0.14-0.63-0.63-0.61
		c-1.24,0.03-2.49,0-3.73,0.02c-0.42,0.02-0.56-0.11-0.55-0.55c0.03-1.11,0.03-2.22,0-3.32c-0.02-0.47,0.11-0.6,0.6-0.6
		c3.02,0.02,6.06,0.03,9.1,0c0.56,0,0.66,0.17,0.66,0.67c-0.02,6.5-0.02,12.99-0.02,19.48v0.96l0.52-0.76
		c1.57-2.62,3.87-4.72,6.62-6.04c4.28-2.05,9.38-1.27,12.86,1.96c3.16,2.73,5.3,6.47,6.04,10.58c1.48,5.82,0.53,11.99-2.63,17.1
		c-1.65,2.85-4.2,5.07-7.25,6.31c-4.33,1.76-9.3,0.82-12.68-2.41C332.02,110,330.85,108.65,329.84,107.2z M350.62,94.98l-0.05-1
		c-0.05-2.63-0.65-5.22-1.75-7.61c-2.88-5.9-9.25-7.41-14.41-3.3c-3.29,2.33-5.1,6.22-4.76,10.23c0,2.57,0.17,5.13,0.5,7.67
		c1.07,4.61,4.86,8.09,9.55,8.75c3.79,0.33,7.38-1.76,8.96-5.23C350.03,101.52,350.7,98.27,350.62,94.98L350.62,94.98z"/>
	<path id="Path_19" class="st0" d="M242.47,107.83c-1.05,1.59-2.37,2.98-3.91,4.1c-3.93,2.99-9.14,3.7-13.72,1.85
		c-5.12-2.15-7.87-7.76-6.44-13.13c0.65-2.13,2.09-3.93,4.04-5.01c2.64-1.49,5.51-2.52,8.5-3.02c3.54-0.71,7.13-1.16,10.74-1.33
		c0.47-0.03,0.58-0.17,0.56-0.61c-0.03-1.02,0-2.02-0.02-3.04c0.11-2.86-1.74-5.42-4.48-6.23c-2.58-0.88-5.38-0.89-7.97-0.05
		c-2.33,0.73-4.03,2.72-4.4,5.13c-0.17,0.7-0.46,0.89-1.16,0.86c-1.39-0.06-2.79-0.03-4.18,0c-0.49,0-0.58-0.11-0.47-0.6
		c0.76-4.14,3.66-7.57,7.61-9.02c4.32-1.67,9.11-1.62,13.39,0.15c3.75,1.46,6.33,4.92,6.67,8.93c0.11,0.93,0.16,1.87,0.15,2.8
		c0,6.39,0.02,12.78-0.02,19.17c0,0.6,0.11,0.81,0.76,0.8c1.28-0.06,2.58,0,3.87-0.03c0.42-0.02,0.55,0.11,0.58,0.53
		c0.09,1.13,0.25,2.26,0.39,3.38c0.06,0.36,0,0.53-0.44,0.52c-3.19-0.02-6.37-0.02-9.57,0c-0.46,0.02-0.53-0.15-0.53-0.56
		C242.47,111.55,242.47,109.69,242.47,107.83z M242.47,98.24c0-0.83-0.06-1.66,0.02-2.49c0.06-0.75-0.24-0.81-0.86-0.72
		c-2.11,0.35-4.26,0.6-6.37,0.96c-2.68,0.34-5.3,1.09-7.75,2.22c-1.61,0.68-2.79,2.1-3.17,3.8c-0.66,3.95,2.01,7.69,5.96,8.35
		c0.27,0.05,0.55,0.08,0.83,0.09c6.03,0.27,11.14-4.39,11.42-10.42C242.56,99.43,242.54,98.83,242.47,98.24L242.47,98.24z"/>
	<path id="Path_20" class="st0" d="M398.34,96.63c-4.17,0-8.35,0-12.51-0.02c-0.61,0-0.78,0.13-0.71,0.74
		c0.23,2.31,0.79,4.58,1.66,6.73c2.09,4.86,7.55,7.32,12.57,5.65c2.22-0.84,4.01-2.56,4.95-4.74c0.24-0.74,0.96-1.22,1.74-1.16
		c1.42,0.02,2.87-0.06,4.31-0.15c0.63-0.03,0.66,0.15,0.52,0.66c-0.88,2.85-2.64,5.34-5.03,7.12c-7.11,5.41-17.26,4.03-22.67-3.07
		c-0.46-0.61-0.88-1.25-1.26-1.92c-4.1-7.01-3.87-15.73,0.6-22.52c2.74-4.92,8.1-7.79,13.72-7.33c6.4,0.35,10.82,3.74,13.48,9.49
		c1.35,3.16,2.05,6.57,2.05,10.01c0.02,0.55-0.28,0.52-0.66,0.52L398.34,96.63z M395.49,92.45c3.15,0,6.31-0.02,9.47,0.02
		c0.55,0.02,0.7-0.14,0.61-0.66c-0.11-0.7-0.14-1.41-0.28-2.1c-0.46-2.61-1.77-4.99-3.73-6.76c-3.14-2.69-7.05-2.5-10.72-0.39
		c-3.52,2.04-4.85,5.42-5.46,9.21c-0.09,0.6,0.06,0.72,0.63,0.7C389.17,92.43,392.33,92.45,395.49,92.45L395.49,92.45z"/>
	<path id="Path_21" class="st0" d="M571.69,82.59c0.75-1.19,1.58-2.33,2.51-3.4c2.21-2.35,5.48-3.39,8.64-2.74
		c0.6,0.08,1.21,0.19,1.8,0.27c0.35,0.05,0.5,0.2,0.5,0.6c-0.02,2.52-0.03,5.06,0,7.58c0.02,0.63-0.36,0.47-0.69,0.42
		c-1.36-0.26-2.75-0.4-4.13-0.41c-4.52-0.12-8.28,3.45-8.4,7.97c0,0.13,0,0.26,0,0.4c0,4.21,0.02,8.42-0.02,12.65
		c0,0.55,0.11,0.75,0.7,0.72c1.03-0.05,2.07,0,3.1-0.02c0.46-0.02,0.63,0.08,0.63,0.58c-0.03,1.98-0.03,3.97,0,5.98
		c0,0.46-0.17,0.52-0.58,0.52c-5.34,0-10.66,0-16,0.02c-0.47,0-0.61-0.11-0.6-0.6c0.02-1.96,0.02-3.93,0-5.9
		c-0.02-0.46,0.11-0.63,0.6-0.6c0.83,0.03,1.66-0.02,2.51,0.02c0.42,0.02,0.61-0.06,0.61-0.58c-0.02-7.09-0.02-14.19,0-21.28
		c0-0.49-0.14-0.61-0.6-0.6c-0.86,0.03-1.72,0-2.58,0.02c-0.38,0.02-0.53-0.09-0.53-0.5c0.02-2.05,0.02-4.09,0-6.14
		c0-0.42,0.17-0.49,0.55-0.49c3.84,0,7.69,0.02,11.52-0.02c0.47,0,0.47,0.22,0.47,0.55C571.69,79.27,571.69,80.93,571.69,82.59z"/>
	<path id="Path_22" class="st0" d="M370.14,86.48c0,7.42,0.02,14.84-0.02,22.27c0,0.66,0.15,0.86,0.83,0.83
		c1.16-0.06,2.33,0,3.49-0.03c0.52-0.03,0.64,0.15,0.63,0.64c-0.03,1.08-0.03,2.16-0.02,3.26c0.02,0.35-0.02,0.53-0.47,0.53
		c-4.93-0.02-9.86,0-14.8,0c-0.31,0-0.44-0.08-0.42-0.42c0.02-1.19,0.02-2.37-0.02-3.55c0-0.47,0.25-0.46,0.58-0.46
		c1.36,0.02,2.72-0.02,4.09,0.02c0.55,0.02,0.74-0.11,0.74-0.69c-0.05-2.13-0.02-4.24-0.02-6.37c0-11.35-0.02-22.72,0.02-34.07
		c0-0.69-0.17-0.91-0.86-0.86c-1.27,0.05-2.54,0-3.8,0.02c-0.39,0.02-0.52-0.11-0.5-0.5c0.03-1.06,0.03-2.13,0-3.19
		c-0.02-0.47,0.19-0.52,0.58-0.52c3.08,0.02,6.17,0.03,9.25,0c0.63-0.02,0.74,0.19,0.74,0.76c-0.02,5.29-0.02,10.6-0.02,15.89
		L370.14,86.48z"/>
	<path id="Path_23" class="st0" d="M660.15,100.62c0.04,3-0.82,5.94-2.46,8.46c-2.48,3.79-6.97,5.75-11.43,4.99
		c-4.53-0.43-8.32-3.62-9.52-8c-1.57-4.25-1.31-8.96,0.74-13c1.96-4.2,6.33-6.73,10.95-6.33c4.48,0.05,8.5,2.73,10.27,6.84
		C659.71,95.79,660.21,98.2,660.15,100.62z M640.14,100.66c-0.04,1.74,0.23,3.46,0.8,5.1c0.87,3.02,3.62,5.1,6.76,5.1
		c3.07,0.11,5.87-1.72,7-4.58c0.59-1.4,0.94-2.89,1.03-4.4c0.34-2.67-0.12-5.37-1.3-7.79c-1.25-2.64-3.99-4.24-6.91-4.02
		c-2.74,0.03-5.18,1.7-6.2,4.24C640.45,96.31,640.05,98.48,640.14,100.66L640.14,100.66z"/>
	<path id="Path_24" class="st0" d="M670.53,92.92c0.59-1.31,1.35-2.53,2.26-3.63c1.69-1.99,4.29-2.95,6.87-2.54
		c1.64,0.2,1.64,0.24,1.64,1.91v1.28c0,0.97,0,0.97-0.99,0.8c-2.06-0.5-4.24-0.16-6.06,0.94c-2.34,1.51-3.75,4.11-3.76,6.89
		c-0.13,3.74-0.02,7.47-0.05,11.21c0,0.61,0.2,0.7,0.74,0.69c1.07-0.03,2.13,0.02,3.19-0.02c0.44-0.02,0.64,0.06,0.6,0.56
		c-0.04,0.7-0.04,1.41,0,2.11c0.02,0.38-0.13,0.47-0.49,0.47c-3.71-0.02-7.44-0.02-11.15,0c-0.47,0-0.55-0.19-0.53-0.58
		c0.04-0.66,0.04-1.32,0-1.97c-0.03-0.46,0.09-0.63,0.58-0.6c0.89,0.03,1.77-0.02,2.66,0.02c0.39,0.02,0.58-0.06,0.58-0.52
		c-0.02-6.39-0.02-12.78,0-19.17c0-0.44-0.17-0.5-0.53-0.49c-0.97,0.02-1.93-0.02-2.88,0.02c-0.46,0.02-0.58-0.14-0.56-0.56
		c0.03-0.72,0.03-1.46,0.02-2.19c-0.02-0.33,0.08-0.44,0.42-0.44h6.98c0.44-0.02,0.39,0.25,0.39,0.53v4.7
		C670.46,92.48,670.5,92.59,670.53,92.92z"/>
	<path id="Path_25" class="st0" d="M629.53,109.16c0.72,0,1.71-0.3,2.11,0.06c0.47,0.42,0.14,1.42,0.14,2.18
		c0,0.7,0.33,1.64-0.14,2.08c-0.44,0.41-1.35,0.09-2.05,0.13c-0.56,0.02-1.11-0.05-1.66,0c-0.61,0.06-0.85-0.09-0.81-0.75
		c0.06-1.08,0.03-2.18,0-3.26c0-0.39,0.13-0.52,0.52-0.5c0.63,0.03,1.27,0,1.89,0L629.53,109.16z"/>
	<path id="Path_26" class="st0" d="M720.15,56.21c-2.38,0.06-1.98,0.31-2.19-1.77c-0.06-0.63-0.11-1.25-0.22-1.86
		c-0.08-0.98-0.94-1.7-1.92-1.62c-0.01,0-0.03,0-0.04,0c-1.11,0-2.22,0.03-3.33,0c-0.49-0.02-0.66,0.09-0.64,0.61
		c0.03,1.33-0.02,2.68,0.02,4.01c0.02,0.53-0.11,0.69-0.66,0.67c-1.02-0.03-1.02,0-1.02-1.03c0-3.57,0.02-7.12-0.02-10.68
		c0-0.56,0.13-0.74,0.7-0.72c1.93,0.06,3.85-0.05,5.76,0.08c1.52-0.06,2.84,1.01,3.1,2.51c0.36,1.57-0.44,3.18-1.91,3.85
		c1.28,0.42,1.57,1.44,1.66,2.58C719.38,54,719.63,55.16,720.15,56.21z M714.04,45.31v-0.05h-1.82c-0.27-0.02-0.42,0.03-0.42,0.36
		c0.02,1.17,0.02,2.37,0,3.54c0,0.24,0.05,0.41,0.33,0.39c1.46,0.07,2.93,0.02,4.38-0.14c1.03-0.23,1.7-1.23,1.53-2.27
		c0.02-0.99-0.78-1.82-1.77-1.83c-0.02,0-0.03,0-0.05,0C715.49,45.27,714.76,45.3,714.04,45.31L714.04,45.31z"/>
</g>
</svg>
