<?xml version="1.0" encoding="utf-8"?>
<!-- Generator: Adobe Illustrator 24.3.0, SVG Export Plug-In . SVG Version: 6.00 Build 0)  -->
<svg version="1.1" id="Layer_1" xmlns="http://www.w3.org/2000/svg" xmlns:xlink="http://www.w3.org/1999/xlink" x="0px" y="0px"
	 viewBox="0 0 700 400" style="enable-background:new 0 0 700 400;" xml:space="preserve">
<style type="text/css">
	.st0{fill:#FFFFFF;}
	.st1{font-family:'ProductSans-Bold';}
	.st2{font-size:35.9326px;}
	.st3{font-family:'Montserrat-Light';}
	.st4{fill:#517CBE;}
	.st5{fill:#32A853;}
	.st6{fill:#FBBC0C;}
	.st7{fill:#E84436;}
</style>
<g id="Group_428" transform="translate(-88 -14)">
	<g id="Group_355" transform="translate(-713 -779)">
		<text transform="matrix(1 0 0 1 1008.0894 1030.7402)" class="st0 st1 st2">Random Number Generator</text>
		<text transform="matrix(1 0 0 1 1008.2935 986.2534)" class="st0 st3 st2">Filmed live using</text>
	</g>
</g>
<path class="st4" d="M167.71,203.28c0-4.36-0.35-8.75-1.11-13.04h-60.54v24.72h34.67c-1.44,7.97-6.06,15.02-12.83,19.5v16.04h20.68
	C160.73,239.32,167.71,222.81,167.71,203.28L167.71,203.28z"/>
<path class="st5" d="M106.06,265.99c17.31,0,31.91-5.68,42.54-15.49l-20.68-16.04c-5.75,3.91-13.18,6.13-21.84,6.13
	c-16.74,0-30.94-11.3-36.04-26.48H48.7v16.53C59.6,252.31,81.79,265.99,106.06,265.99z"/>
<path class="st6" d="M70.02,214.11c-2.69-7.97-2.69-16.6,0-24.57V173H48.7c-9.1,18.14-9.1,39.5,0,57.64L70.02,214.11z"/>
<path class="st7" d="M106.06,163.03c9.15-0.14,17.99,3.3,24.62,9.62L149,154.32c-11.6-10.9-27-16.89-42.95-16.7
	c-24.27,0-46.46,13.68-57.36,35.38l21.32,16.53C75.09,174.32,89.31,163.03,106.06,163.03z"/>
</svg>
