<?xml version="1.0" encoding="utf-8"?>
<!-- Generator: Adobe Illustrator 24.3.0, SVG Export Plug-In . SVG Version: 6.00 Build 0)  -->
<svg version="1.1" id="Layer_1" xmlns="http://www.w3.org/2000/svg" xmlns:xlink="http://www.w3.org/1999/xlink" x="0px" y="0px"
	 viewBox="0 0 400 400" style="enable-background:new 0 0 400 400;" xml:space="preserve">
<style type="text/css">
	.st0{fill:#FFFFFF;}
	.st1{fill:#E84243;}
	.st2{font-family:'Montserrat-SemiBold';}
	.st3{font-size:63.6929px;}
	.st4{letter-spacing:2;}
</style>
<g id="Group_429" transform="translate(-35 -42)">
	<path id="iconmonstr-facebook-6" class="st0" d="M167.55,187.41H70.42c-3.33,0-6.03,2.7-6.03,6.03v97.14c0,3.33,2.7,6.02,6.03,6.02
		h52.3v-42.28h-14.23v-16.48h14.23v-12.15c0-14.1,8.61-21.78,21.2-21.78c4.25-0.02,8.51,0.2,12.74,0.65v14.74h-8.75
		c-6.82,0-8.19,3.25-8.19,8.02v10.52h16.32l-2.12,16.48h-14.19v42.28h27.82c3.33,0.01,6.03-2.68,6.04-6.01c0-0.01,0-0.02,0-0.02
		v-97.13C173.58,190.1,170.88,187.41,167.55,187.41C167.55,187.41,167.55,187.41,167.55,187.41z"/>
	<path id="Rectangle_411" class="st1" d="M205.43,187.41h195.63c2.51,0,4.55,2.04,4.55,4.55v100.09c0,2.51-2.04,4.55-4.55,4.55
		H205.43c-2.51,0-4.55-2.04-4.55-4.55V191.96C200.88,189.44,202.92,187.41,205.43,187.41z"/>
	<text transform="matrix(1 0 0 1 228.1757 264.748)" class="st0 st2 st3 st4">LIVE</text>
</g>
</svg>
